<svg width="96" height="24" viewBox="0 0 96 24" fill="none" xmlns="http://www.w3.org/2000/svg">
<path d="M3.81333 14.0028V19.0916H1.09082V3.8252H7.4518C11.3447 3.8252 13.622 5.47905 13.622 8.53232C13.622 11.5856 11.3447 13.2395 7.4518 13.2395H4.61481L3.81333 14.0028ZM7.4518 10.7332C9.7672 10.7332 10.8613 9.93173 10.8613 8.57049C10.8613 7.20924 9.71632 6.36959 7.4518 6.36959H3.81333V10.7205L7.4518 10.7332Z" fill="black"/>
<path d="M24.129 19.4612C19.8036 19.4612 17.0557 15.9372 17.0557 11.4845C17.0557 7.03182 19.8036 3.49512 24.129 3.49512C28.4545 3.49512 31.2025 7.0191 31.2025 11.4845C31.2025 15.9499 28.4545 19.4612 24.129 19.4612ZM24.129 6.05224C21.2666 6.05224 19.9053 8.49485 19.9053 11.4845C19.9053 14.4741 21.2666 16.904 24.129 16.904C26.9914 16.904 28.3528 14.4741 28.3528 11.4845C28.3528 8.49485 26.9914 6.05224 24.129 6.05224Z" fill="black"/>
<path d="M39.561 16.5471H47.3088V19.0916H36.0625V3.8252H38.7596V15.7838L39.561 16.5471Z" fill="black"/>
<path d="M55.7955 16.5471H63.4286V19.0916H52.2334V3.8252H54.9431V15.7838L55.7955 16.5471Z" fill="black"/>
<path d="M78.4903 3.8252H81.7217L71.2006 19.0916H67.9692L72.0021 13.214V12.1454L66.3154 3.8252H69.5213L74.0122 10.3134L78.4903 3.8252Z" fill="black"/>
<path d="M93.1594 1.09082L95.4365 2.42663L81.3915 22.909H78.1855L93.1594 1.09082Z" fill="#01FFF0"/>
</svg>
